<svg version="1.1" xmlns="http://www.w3.org/2000/svg" xmlns:xlink="http://www.w3.org/1999/xlink" width="172" height="231" viewBox="0,0,172,231"><g transform="translate(-155.5,-114.71666)"><g data-paper-data="{&quot;isPaintingLayer&quot;:true}" fill-rule="nonzero" stroke-linejoin="miter" stroke-miterlimit="10" stroke-dasharray="" stroke-dashoffset="0" style="mix-blend-mode: normal"><path d="M302.60447,239.41248l-13,6.71428c0,0 -4.83606,-11.48164 -10.93052,-14.56285c-6.6641,-3.36921 -22.21234,-5.86572 -22.21234,-5.86572l0.14286,-13.42857c0,0 21.02253,2.6401 29.76883,6.06771c8.87097,3.47646 16.23117,21.07515 16.23117,21.07515z" data-paper-data="{&quot;index&quot;:null}" fill="#d6d6d6" stroke="#000000" stroke-width="4" stroke-linecap="butt"/><path d="M280.60447,251.98391c0,-9.07325 7.2274,-16.42857 16.14285,-16.42857c8.91546,0 16.14286,7.35532 16.14286,16.42857c0,9.07325 -7.2274,16.42857 -16.14286,16.42857c-8.91546,0 -16.14285,-7.35532 -16.14285,-16.42857z" data-paper-data="{&quot;index&quot;:null}" fill="#d6d6d6" stroke="#000000" stroke-width="4" stroke-linecap="butt"/><path d="M196.10892,216.96446c8.7463,-3.42761 29.76883,-6.06771 29.76883,-6.06771l0.14286,13.42857c0,0 -15.54824,2.49651 -22.21234,5.86572c-6.09446,3.08121 -10.93052,14.56285 -10.93052,14.56285l-13,-6.71428c0,0 7.3602,-17.59869 16.23117,-21.07515z" data-paper-data="{&quot;index&quot;:null}" fill="#d6d6d6" stroke="#000000" stroke-width="4" stroke-linecap="butt"/><path d="M215.64286,266.67381v-57.14286h46.85715v57.14286z" fill="#d6d6d6" stroke="#000000" stroke-width="4.5" stroke-linecap="butt"/><path d="M209.78572,210.28572v-60.57143l60.42857,0.14286v60.42857z" fill="#d6d6d6" stroke="#000000" stroke-width="5" stroke-linecap="butt"/><path d="M229.56213,194.02753c0,0 -4.97528,-11.63381 12.79663,-11.37765c15.29647,0.22048 12.49784,12.58255 12.49784,12.58255" data-paper-data="{&quot;index&quot;:null}" fill="none" stroke="#000000" stroke-width="5" stroke-linecap="round"/><path d="M224.42771,165.23427c0.45288,-2.98624 3.03105,-5.27475 6.14372,-5.27475c3.03337,0 5.70198,2.17338 6.24786,5.04789c0.03186,0.16779 0.30847,1.77071 0.28337,3.37222c-0.03143,2.00466 -0.37365,4.08808 -0.40632,4.27889c-0.50146,2.92901 -3.05287,5.15816 -6.12491,5.15816c-3.11267,0 -5.69084,-2.14565 -6.14372,-5.13189c-0.02635,-0.17375 -0.46633,-2.44771 -0.46279,-4.43998c0.0027,-1.52104 0.44268,-2.87787 0.46279,-3.01053z" fill="#ff0000" stroke="#000000" stroke-width="3.5" stroke-linecap="butt"/><path d="M245.85628,165.23428c0.45288,-2.98624 3.03105,-5.27475 6.14372,-5.27475c3.03337,0 5.70198,2.17338 6.24786,5.04788c0.03186,0.16779 0.30847,1.77071 0.28337,3.37222c-0.03143,2.00466 -0.37365,4.08808 -0.40632,4.27889c-0.50146,2.92901 -3.05287,5.15816 -6.12491,5.15816c-3.11267,0 -5.69084,-2.14565 -6.14372,-5.13189c-0.02635,-0.17375 -0.46633,-2.44771 -0.46279,-4.43998c0.0027,-1.52104 0.44268,-2.87787 0.46279,-3.01052z" fill="#ff0000" stroke="#000000" stroke-width="3.5" stroke-linecap="butt"/><path d="M206.35889,141.44645l3.00997,3.90741l5.30799,-2.70571l4.80446,6.00841" fill="none" stroke="#000000" stroke-width="3" stroke-linecap="round"/><path d="M201.13169,139.36842c0.66522,-1.07556 2.79195,-1.3864 4.75019,-0.69429c1.95824,0.69212 3.00644,2.1251 2.34122,3.20066c-0.66522,1.07556 -2.79197,1.3864 -4.75021,0.69428c-1.95824,-0.69212 -3.00643,-2.12509 -2.34121,-3.20065z" fill="#ff0000" stroke="#000000" stroke-width="2" stroke-linecap="butt"/><path d="M219.42857,215.24524c0,-0.82843 0.67157,-1.5 1.5,-1.5c0.82843,0 1.5,0.67157 1.5,1.5c0,0.82843 -0.67157,1.5 -1.5,1.5c-0.82843,0 -1.5,-0.67157 -1.5,-1.5z" fill="#000000" stroke="none" stroke-width="0.5" stroke-linecap="butt"/><path d="M256.14286,215.3881c0,-0.82843 0.67158,-1.5 1.5,-1.5c0.82842,0 1.5,0.67157 1.5,1.5c0,0.82843 -0.67158,1.5 -1.5,1.5c-0.82842,0 -1.5,-0.67157 -1.5,-1.5z" fill="#000000" stroke="none" stroke-width="0.5" stroke-linecap="butt"/><path d="M256,261.67381c0,-0.82842 0.67158,-1.5 1.5,-1.5c0.82842,0 1.5,0.67158 1.5,1.5c0,0.82842 -0.67158,1.5 -1.5,1.5c-0.82842,0 -1.5,-0.67158 -1.5,-1.5z" fill="#000000" stroke="none" stroke-width="0.5" stroke-linecap="butt"/><path d="M219.28572,261.67381c0,-0.82842 0.67157,-1.5 1.5,-1.5c0.82843,0 1.5,0.67158 1.5,1.5c0,0.82842 -0.67157,1.5 -1.5,1.5c-0.82843,0 -1.5,-0.67158 -1.5,-1.5z" fill="#000000" stroke="none" stroke-width="0.5" stroke-linecap="butt"/><path d="M185.7349,267.03961c-8.91546,0 -16.14286,-7.35532 -16.14286,-16.42857c0,-9.07325 7.2274,-16.42857 16.14286,-16.42857c8.91545,0 16.14285,7.35532 16.14285,16.42857c0,9.07325 -7.22739,16.42857 -16.14285,16.42857z" data-paper-data="{&quot;index&quot;:null}" fill="#d6d6d6" stroke="#000000" stroke-width="4" stroke-linecap="butt"/><path d="M223.35715,236.81667v-14h31.85714v14z" fill="#000000" stroke="#000000" stroke-width="4" stroke-linecap="butt"/><text transform="translate(225.5,233.69583) scale(0.31236,0.31236)" font-size="40" xml:space="preserve" fill="#ffffff" fill-rule="nonzero" stroke="none" stroke-width="1" stroke-linecap="butt" stroke-linejoin="miter" stroke-miterlimit="10" stroke-dasharray="" stroke-dashoffset="0" font-family="Pixel" font-weight="normal" text-anchor="start" style="mix-blend-mode: normal"><tspan x="0" dy="0">5x6</tspan></text><path d="M220.85835,325.24524v-56.71429h18.87992v56.71429z" fill="#d6d6d6" stroke="#000000" stroke-width="4.5" stroke-linecap="butt"/><path d="M238.36294,325.04523v-56.71428h18.87992v56.71428z" fill="#d6d6d6" stroke="#000000" stroke-width="4.5" stroke-linecap="butt"/><path d="M238.60121,324.94333c0,5.85422 -9.42293,5 -20.8,5c-11.37707,0 -20.4,0.85422 -20.4,-5c0,-5.85422 9.22293,-10.6 20.6,-10.6c11.37707,0 20.6,4.74578 20.6,10.6z" fill="#d6d6d6" stroke="#000000" stroke-width="4.5" stroke-linecap="butt"/><path d="M258.52857,314.74333c11.37707,0 20.6,4.74578 20.6,10.6c0,5.85422 -9.02293,5 -20.4,5c-11.37706,0 -20.8,0.85422 -20.8,-5c0,-5.85422 9.22294,-10.6 20.6,-10.6z" data-paper-data="{&quot;index&quot;:null}" fill="#d6d6d6" stroke="#000000" stroke-width="4.5" stroke-linecap="butt"/><path d="M246.32857,300.54333v-12.8h10.6v12.8z" fill="#d6d6d6" stroke="#000000" stroke-width="1.5" stroke-linecap="butt"/><path d="M155.5,345.71666v-231h172v231z" fill="none" stroke="#000000" stroke-width="0" stroke-linecap="butt"/></g></g></svg>