<svg version="1.1" xmlns="http://www.w3.org/2000/svg" xmlns:xlink="http://www.w3.org/1999/xlink" width="172" height="231" viewBox="0,0,172,231"><g transform="translate(-155.5,-114.71666)"><g data-paper-data="{&quot;isPaintingLayer&quot;:true}" fill-rule="nonzero" stroke-linejoin="miter" stroke-miterlimit="10" stroke-dasharray="" stroke-dashoffset="0" style="mix-blend-mode: normal"><path d="M200.19447,258.82574l14.32194,-48.79888l14.80416,4.34486l-14.32194,48.79888z" data-paper-data="{&quot;index&quot;:null}" fill="#d6d6d6" stroke="#000000" stroke-width="4" stroke-linecap="butt"/><path d="M205.54323,252.74158c6.50907,0 11.78571,4.44349 11.78571,9.92481c0,5.48132 -5.27664,9.92481 -11.78571,9.92481c-6.50907,0 -11.78571,-4.44349 -11.78571,-9.92481c0,-5.48132 5.27664,-9.92481 11.78571,-9.92481z" data-paper-data="{&quot;index&quot;:null}" fill="#d6d6d6" stroke="#000000" stroke-width="4" stroke-linecap="butt"/><path d="M265.25889,264.38854l-14.32194,-48.79888l14.80416,-4.34486l14.32194,48.79888z" fill="#d6d6d6" stroke="#000000" stroke-width="4" stroke-linecap="butt"/><path d="M286.5,263.88433c0,5.48132 -5.27664,9.92481 -11.78571,9.92481c-6.50907,0 -11.78571,-4.44349 -11.78571,-9.92481c0,-5.48132 5.27664,-9.92481 11.78571,-9.92481c6.50907,0 11.78571,4.44349 11.78571,9.92481z" fill="#d6d6d6" stroke="#000000" stroke-width="4" stroke-linecap="butt"/><path d="M215.64286,266.67381v-57.14286h46.85715v57.14286z" fill="#d6d6d6" stroke="#000000" stroke-width="4.5" stroke-linecap="butt"/><path d="M209.78572,210.28572v-60.57143l60.42857,0.14286v60.42857z" fill="#d6d6d6" stroke="#000000" stroke-width="5" stroke-linecap="butt"/><path d="M255.60795,182.95625c0,0 2.32406,17.52072 -12.97522,17.41678c-17.77518,-0.12076 -12.35609,-16.40285 -12.35609,-16.40285" fill="none" stroke="#000000" stroke-width="5" stroke-linecap="round"/><path d="M224.42771,165.23427c0.45288,-2.98624 3.03105,-5.27475 6.14372,-5.27475c3.03337,0 5.70198,2.17338 6.24786,5.04789c0.03186,0.16779 0.30847,1.77071 0.28337,3.37222c-0.03143,2.00466 -0.37365,4.08808 -0.40632,4.27889c-0.50146,2.92901 -3.05287,5.15816 -6.12491,5.15816c-3.11267,0 -5.69084,-2.14565 -6.14372,-5.13189c-0.02635,-0.17375 -0.46633,-2.44771 -0.46279,-4.43998c0.0027,-1.52104 0.44268,-2.87787 0.46279,-3.01053z" fill="#ffffff" stroke="#000000" stroke-width="3.5" stroke-linecap="butt"/><path d="M245.85628,165.23428c0.45288,-2.98624 3.03105,-5.27475 6.14372,-5.27475c3.03337,0 5.70198,2.17338 6.24786,5.04788c0.03186,0.16779 0.30847,1.77071 0.28337,3.37222c-0.03143,2.00466 -0.37365,4.08808 -0.40632,4.27889c-0.50146,2.92901 -3.05287,5.15816 -6.12491,5.15816c-3.11267,0 -5.69084,-2.14565 -6.14372,-5.13189c-0.02635,-0.17375 -0.46633,-2.44771 -0.46279,-4.43998c0.0027,-1.52104 0.44268,-2.87787 0.46279,-3.01052z" fill="#ffffff" stroke="#000000" stroke-width="3.5" stroke-linecap="butt"/><path d="M210.78571,137.10239l1.19572,4.78519l5.94714,-0.35663l2,7.42858" fill="none" stroke="#000000" stroke-width="3" stroke-linecap="round"/><path d="M206.82611,133.10697c1.03991,-0.71968 3.11343,-0.15388 4.63134,1.26375c1.51791,1.41763 1.90541,3.15026 0.8655,3.86994c-1.03991,0.71968 -3.11344,0.15387 -4.63135,-1.26376c-1.51791,-1.41763 -1.9054,-3.15025 -0.86549,-3.86993z" fill="#b7b7b7" stroke="#000000" stroke-width="2" stroke-linecap="butt"/><path d="M219.42857,215.24524c0,-0.82843 0.67157,-1.5 1.5,-1.5c0.82843,0 1.5,0.67157 1.5,1.5c0,0.82843 -0.67157,1.5 -1.5,1.5c-0.82843,0 -1.5,-0.67157 -1.5,-1.5z" fill="#000000" stroke="none" stroke-width="0.5" stroke-linecap="butt"/><path d="M256.14286,215.3881c0,-0.82843 0.67158,-1.5 1.5,-1.5c0.82842,0 1.5,0.67157 1.5,1.5c0,0.82843 -0.67158,1.5 -1.5,1.5c-0.82842,0 -1.5,-0.67157 -1.5,-1.5z" fill="#000000" stroke="none" stroke-width="0.5" stroke-linecap="butt"/><path d="M256,261.67381c0,-0.82842 0.67158,-1.5 1.5,-1.5c0.82842,0 1.5,0.67158 1.5,1.5c0,0.82842 -0.67158,1.5 -1.5,1.5c-0.82842,0 -1.5,-0.67158 -1.5,-1.5z" fill="#000000" stroke="none" stroke-width="0.5" stroke-linecap="butt"/><path d="M219.28572,261.67381c0,-0.82842 0.67157,-1.5 1.5,-1.5c0.82843,0 1.5,0.67158 1.5,1.5c0,0.82842 -0.67157,1.5 -1.5,1.5c-0.82843,0 -1.5,-0.67158 -1.5,-1.5z" fill="#000000" stroke="none" stroke-width="0.5" stroke-linecap="butt"/><path d="M223.35715,236.81667v-14h31.85714v14z" fill="#000000" stroke="#000000" stroke-width="4" stroke-linecap="butt"/><text transform="translate(225.5,233.69583) scale(0.31236,0.31236)" font-size="40" xml:space="preserve" fill="#ffffff" fill-rule="nonzero" stroke="none" stroke-width="1" stroke-linecap="butt" stroke-linejoin="miter" stroke-miterlimit="10" stroke-dasharray="" stroke-dashoffset="0" font-family="Pixel" font-weight="normal" text-anchor="start" style="mix-blend-mode: normal"><tspan x="0" dy="0">5x6</tspan></text><path d="M218.78571,325.24524v-56.71429h18.87992v56.71429z" fill="#d6d6d6" stroke="#000000" stroke-width="4.5" stroke-linecap="butt"/><path d="M238.36294,325.04523v-56.71428h18.87992v56.71428z" fill="#d6d6d6" stroke="#000000" stroke-width="4.5" stroke-linecap="butt"/><path d="M236.52857,324.94333c0,5.85422 -9.42293,5 -20.8,5c-11.37707,0 -20.4,0.85422 -20.4,-5c0,-5.85422 9.22293,-10.6 20.6,-10.6c11.37707,0 20.6,4.74578 20.6,10.6z" fill="#d6d6d6" stroke="#000000" stroke-width="4.5" stroke-linecap="butt"/><path d="M258.52857,314.74333c11.37707,0 20.6,4.74578 20.6,10.6c0,5.85422 -9.02293,5 -20.4,5c-11.37706,0 -20.8,0.85422 -20.8,-5c0,-5.85422 9.22294,-10.6 20.6,-10.6z" data-paper-data="{&quot;index&quot;:null}" fill="#d6d6d6" stroke="#000000" stroke-width="4.5" stroke-linecap="butt"/><path d="M246.32857,300.54333v-12.8h10.6v12.8z" fill="#d6d6d6" stroke="#000000" stroke-width="1.5" stroke-linecap="butt"/><path d="M155.5,345.71666v-231h172v231z" fill="none" stroke="#000000" stroke-width="0" stroke-linecap="butt"/></g></g></svg>